<?xml version="1.0" standalone="no"?>
<!DOCTYPE svg PUBLIC "-//W3C//DTD SVG 20010904//EN"
 "http://www.w3.org/TR/2001/REC-SVG-20010904/DTD/svg10.dtd">
<svg version="1.0" xmlns="http://www.w3.org/2000/svg"
 width="512.000000pt" height="512.000000pt" viewBox="0 0 512.000000 512.000000"
 preserveAspectRatio="xMidYMid meet">
<metadata>
Created by potrace 1.14, written by Peter Selinger 2001-2017
</metadata>
<g transform="translate(0.000000,512.000000) scale(0.100000,-0.100000)"
fill="#000000" stroke="none">
<path d="M1732 4300 c-177 -39 -369 -132 -496 -243 -34 -28 -319 -283 -634
-566 -586 -524 -602 -540 -602 -610 0 -79 104 -395 188 -575 389 -823 1146
-1372 2052 -1487 136 -18 504 -18 640 0 745 94 1406 491 1827 1096 172 247
292 505 380 815 37 133 40 188 10 234 -13 20 -999 909 -1212 1093 -132 114
-323 206 -507 244 -242 50 -531 -12 -749 -161 -32 -22 -63 -40 -69 -40 -6 0
-37 18 -69 40 -218 149 -518 212 -759 160z m1093 -1110 c289 -11 503 -28 735
-61 234 -32 533 -91 553 -109 13 -11 -44 -102 -98 -155 -55 -56 -116 -93 -197
-122 -50 -17 -113 -18 -1258 -18 -1145 0 -1208 1 -1258 18 -81 29 -142 66
-197 122 -54 53 -111 144 -98 155 20 18 319 76 553 109 282 40 485 54 950 69
25 1 167 -3 315 -8z"/>
</g>
</svg>
